<svg xmlns="http://www.w3.org/2000/svg" xmlns:xlink="http://www.w3.org/1999/xlink" width="500" zoomAndPan="magnify" viewBox="0 0 375 374.999991" height="500" preserveAspectRatio="xMidYMid meet" version="1.0"><defs><clipPath id="bf2fe1ad5f"><path d="M 37.5 37.5 L 337.5 37.5 L 337.5 337.5 L 37.5 337.5 Z M 37.5 37.5 " clip-rule="nonzero"/></clipPath><clipPath id="8ef3473e91"><path d="M 0 0 L 118.378906 0 L 118.378906 98.980469 L 0 98.980469 Z M 0 0 " clip-rule="nonzero"/></clipPath></defs><path fill="#5271ff" d="M 186.816406 98.082031 C 173.765625 98.382812 161.421875 107.445312 151.964844 123.675781 C 149.644531 127.660156 147.570312 131.953125 145.75 136.5 C 158.589844 132.792969 172.792969 130.832031 187.5 130.832031 C 202.207031 130.832031 216.417969 132.792969 229.25 136.5 C 227.429688 131.953125 225.355469 127.660156 223.035156 123.675781 C 213.585938 107.453125 201.226562 98.390625 188.183594 98.082031 C 187.957031 98.082031 187.726562 98.074219 187.5 98.074219 C 187.273438 98.074219 187.042969 98.082031 186.816406 98.082031 Z M 186.816406 98.082031 " fill-opacity="1" fill-rule="evenodd"/><path fill="#5271ff" d="M 143.292969 143.292969 C 138.929688 156.621094 136.601562 171.742188 136.601562 187.5 C 136.601562 203.257812 138.921875 218.386719 143.292969 231.707031 C 156.621094 236.070312 171.75 238.398438 187.5 238.398438 C 203.257812 238.398438 218.386719 236.078125 231.707031 231.707031 C 236.070312 218.378906 238.398438 203.25 238.398438 187.5 C 238.398438 171.742188 236.078125 156.621094 231.707031 143.292969 C 218.378906 138.929688 203.25 136.601562 187.5 136.601562 C 171.742188 136.601562 156.621094 138.929688 143.292969 143.292969 Z M 157.152344 192.121094 L 169.308594 171.160156 L 180.664062 151.496094 C 182.871094 147.71875 187.75 146.417969 191.542969 148.589844 C 192.757812 149.296875 193.753906 150.300781 194.453125 151.488281 L 229.171875 211.570312 C 231.375 215.351562 230.082031 220.234375 226.28125 222.453125 C 226.210938 222.492188 226.140625 222.523438 226.0625 222.5625 C 224.777344 223.175781 223.488281 223.488281 222.210938 223.488281 L 152.820312 223.488281 C 148.441406 223.488281 144.871094 219.902344 144.871094 215.507812 C 144.871094 214.113281 145.242188 212.738281 145.945312 211.53125 L 154.414062 196.847656 L 154.414062 196.839844 Z M 157.152344 192.121094 " fill-opacity="1" fill-rule="evenodd"/><path fill="#5271ff" d="M 163.046875 101.472656 C 133.367188 109.917969 109.941406 133.359375 101.488281 163.03125 C 106.214844 157.121094 112.695312 151.683594 120.777344 146.976562 C 126.257812 143.78125 132.292969 141.027344 138.742188 138.742188 C 141.027344 132.285156 143.78125 126.25 146.96875 120.769531 C 151.691406 112.6875 157.121094 106.199219 163.046875 101.472656 Z M 163.046875 101.472656 " fill-opacity="1" fill-rule="evenodd"/><path fill="#5271ff" d="M 123.683594 151.964844 C 107.171875 161.585938 98.082031 174.199219 98.082031 187.5 C 98.082031 200.800781 107.171875 213.421875 123.683594 223.042969 C 127.667969 225.363281 131.953125 227.4375 136.507812 229.257812 C 132.800781 216.417969 130.839844 202.214844 130.839844 187.5 C 130.839844 172.792969 132.800781 158.582031 136.507812 145.75 C 131.953125 147.570312 127.660156 149.644531 123.683594 151.964844 Z M 123.683594 151.964844 " fill-opacity="1" fill-rule="evenodd"/><path fill="#5271ff" d="M 138.75 236.257812 C 132.292969 233.972656 126.257812 231.21875 120.78125 228.023438 C 112.703125 223.316406 106.214844 217.878906 101.496094 211.96875 C 109.949219 241.648438 133.375 265.074219 163.046875 273.527344 C 157.128906 268.800781 151.699219 262.320312 146.984375 254.230469 C 143.789062 248.742188 141.035156 242.707031 138.75 236.257812 Z M 138.75 236.257812 " fill-opacity="1" fill-rule="evenodd"/><path fill="#5271ff" d="M 187.5 244.167969 C 172.792969 244.167969 158.582031 242.207031 145.75 238.5 C 147.570312 243.046875 149.644531 247.339844 151.964844 251.316406 C 161.414062 267.546875 173.773438 276.609375 186.816406 276.910156 C 187.042969 276.910156 187.273438 276.917969 187.5 276.917969 C 187.726562 276.917969 187.957031 276.910156 188.183594 276.910156 C 201.234375 276.609375 213.578125 267.546875 223.035156 251.316406 C 225.355469 247.332031 227.429688 243.046875 229.25 238.5 C 216.417969 242.207031 202.207031 244.167969 187.5 244.167969 Z M 187.5 244.167969 " fill-opacity="1" fill-rule="evenodd"/><path fill="#5271ff" d="M 158.347656 201.601562 L 150.953125 214.425781 C 150.765625 214.761719 150.65625 215.140625 150.65625 215.515625 C 150.65625 216.734375 151.636719 217.722656 152.828125 217.722656 L 172.363281 217.722656 C 171.253906 210.109375 165.777344 203.777344 158.347656 201.601562 Z M 158.347656 201.601562 " fill-opacity="1" fill-rule="evenodd"/><path fill="#5271ff" d="M 165.589844 189.070312 L 161.296875 196.5 C 170.484375 199.742188 177.085938 207.992188 178.183594 217.730469 L 190.152344 217.730469 C 188.9375 203.933594 179.078125 192.382812 165.589844 189.070312 Z M 165.589844 189.070312 " fill-opacity="1" fill-rule="evenodd"/><path fill="#5271ff" d="M 174.308594 174.050781 L 168.601562 183.90625 C 183.8125 188.355469 194.757812 201.820312 195.945312 217.722656 L 222.226562 217.722656 C 222.601562 217.722656 223.019531 217.621094 223.480469 217.421875 C 224.445312 216.789062 224.777344 215.46875 224.195312 214.472656 L 189.46875 154.382812 C 189.28125 154.054688 188.992188 153.777344 188.675781 153.589844 C 188.332031 153.394531 187.957031 153.300781 187.585938 153.300781 C 186.824219 153.300781 186.078125 153.691406 185.664062 154.398438 Z M 174.308594 174.050781 " fill-opacity="1" fill-rule="evenodd"/><path fill="#5271ff" d="M 254.222656 228.03125 C 248.742188 231.226562 242.707031 233.980469 236.257812 236.265625 C 233.972656 242.722656 231.21875 248.757812 228.03125 254.238281 C 223.316406 262.328125 217.886719 268.816406 211.96875 273.535156 C 241.648438 265.089844 265.074219 241.65625 273.519531 211.976562 C 268.800781 217.886719 262.3125 223.308594 254.222656 228.03125 Z M 254.222656 228.03125 " fill-opacity="1" fill-rule="evenodd"/><path fill="#5271ff" d="M 244.175781 187.5 C 244.175781 202.207031 242.214844 216.417969 238.507812 229.257812 C 243.054688 227.4375 247.347656 225.363281 251.332031 223.042969 C 267.84375 213.421875 276.933594 200.800781 276.933594 187.5 C 276.933594 174.199219 267.84375 161.585938 251.332031 151.964844 C 247.347656 149.644531 243.0625 147.570312 238.507812 145.75 C 242.207031 158.582031 244.175781 172.792969 244.175781 187.5 Z M 244.175781 187.5 " fill-opacity="1" fill-rule="evenodd"/><path fill="#5271ff" d="M 228.03125 120.777344 C 231.226562 126.257812 233.972656 132.292969 236.257812 138.75 C 242.714844 141.035156 248.75 143.789062 254.222656 146.984375 C 262.304688 151.691406 268.800781 157.128906 273.519531 163.039062 C 265.066406 133.359375 241.640625 109.933594 211.960938 101.480469 C 217.878906 106.199219 223.316406 112.6875 228.03125 120.777344 Z M 228.03125 120.777344 " fill-opacity="1" fill-rule="evenodd"/><g clip-path="url(#bf2fe1ad5f)"><path fill="#5271ff" d="M 187.5 37.5 C 228.917969 37.5 266.417969 54.285156 293.5625 81.4375 C 320.707031 108.585938 337.5 146.082031 337.5 187.5 C 337.5 228.917969 320.714844 266.417969 293.570312 293.5625 C 266.425781 320.707031 228.921875 337.5 187.507812 337.5 C 146.089844 337.5 108.578125 320.714844 81.4375 293.5625 C 54.292969 266.414062 37.5 228.921875 37.5 187.5 C 37.5 146.078125 54.292969 108.578125 81.4375 81.4375 C 108.578125 54.292969 146.082031 37.5 187.5 37.5 Z M 288.828125 86.171875 C 262.90625 60.242188 227.074219 44.203125 187.5 44.203125 C 147.925781 44.203125 112.109375 60.242188 86.171875 86.171875 C 60.242188 112.101562 44.203125 147.925781 44.203125 187.5 C 44.203125 227.074219 60.242188 262.890625 86.171875 288.828125 C 112.101562 314.757812 147.925781 330.796875 187.5 330.796875 C 227.074219 330.796875 262.890625 314.757812 288.828125 288.828125 C 314.757812 262.898438 330.796875 227.074219 330.796875 187.5 C 330.796875 147.925781 314.757812 112.109375 288.828125 86.171875 Z M 288.828125 86.171875 " fill-opacity="1" fill-rule="nonzero"/></g><path fill="#000000" d="M -31.621094 5.648438 C -46.328125 5.648438 -60.539062 3.6875 -73.371094 -0.0195312 C -71.554688 4.527344 -69.476562 8.824219 -67.160156 12.796875 C -57.707031 29.027344 -45.351562 38.089844 -32.308594 38.394531 C -32.082031 38.394531 -31.847656 38.402344 -31.621094 38.402344 C -31.398438 38.402344 -31.164062 38.394531 -30.9375 38.394531 C -17.886719 38.089844 -5.542969 29.027344 3.914062 12.796875 C 6.230469 8.816406 8.308594 4.527344 10.128906 -0.0195312 C -2.703125 3.6875 -16.914062 5.648438 -31.621094 5.648438 Z M -31.621094 5.648438 " fill-opacity="1" fill-rule="evenodd"/><path fill="#000000" d="M 35.101562 -10.488281 C 29.617188 -7.292969 23.582031 -4.539062 17.136719 -2.253906 C 14.847656 4.203125 12.097656 10.238281 8.90625 15.722656 C 4.195312 23.808594 -1.234375 30.296875 -7.152344 35.019531 C 22.527344 26.570312 45.953125 3.136719 54.398438 -26.542969 C 49.675781 -20.632812 43.191406 -15.210938 35.101562 -10.488281 Z M 35.101562 -10.488281 " fill-opacity="1" fill-rule="evenodd"/><g clip-path="url(#8ef3473e91)"><path fill="#000000" d="M -31.621094 -201.019531 C 9.792969 -201.019531 47.296875 -184.234375 74.441406 -157.082031 C 101.585938 -129.929688 118.378906 -92.433594 118.378906 -51.019531 C 118.378906 -9.601562 101.59375 27.902344 74.449219 55.046875 C 47.304688 82.1875 9.800781 98.980469 -31.613281 98.980469 C -73.03125 98.980469 -110.542969 82.195312 -137.6875 55.046875 C -164.832031 27.894531 -181.621094 -9.59375 -181.621094 -51.019531 C -181.621094 -92.441406 -164.832031 -129.9375 -137.6875 -157.082031 C -110.542969 -184.226562 -73.039062 -201.019531 -31.621094 -201.019531 Z M 69.707031 -152.347656 C 43.78125 -178.277344 7.949219 -194.316406 -31.621094 -194.316406 C -71.195312 -194.316406 -107.011719 -178.277344 -132.949219 -152.347656 C -158.878906 -126.414062 -174.917969 -90.589844 -174.917969 -51.019531 C -174.917969 -11.445312 -158.878906 24.371094 -132.949219 50.308594 C -107.019531 76.238281 -71.195312 92.277344 -31.621094 92.277344 C 7.949219 92.277344 43.765625 76.238281 69.707031 50.308594 C 95.636719 24.378906 111.671875 -11.445312 111.671875 -51.019531 C 111.671875 -90.589844 95.636719 -126.40625 69.707031 -152.347656 Z M 69.707031 -152.347656 " fill-opacity="1" fill-rule="nonzero"/></g></svg>